<?xml version="1.0" standalone="no"?>
<!DOCTYPE svg PUBLIC "-//W3C//DTD SVG 20010904//EN"
 "http://www.w3.org/TR/2001/REC-SVG-20010904/DTD/svg10.dtd">
<svg version="1.0" xmlns="http://www.w3.org/2000/svg"
 width="270.000000pt" height="270.000000pt" viewBox="0 0 270.000000 270.000000"
 preserveAspectRatio="xMidYMid meet">
<metadata>
Created by potrace 1.11, written by Peter Selinger 2001-2013
</metadata>
<g transform="translate(0.000000,270.000000) scale(0.100000,-0.100000)"
fill="#000000" stroke="none">
<path d="M1244 2691 c-2 -2 -25 -6 -52 -7 -26 -2 -58 -5 -72 -8 -14 -3 -36 -8
-50 -10 -36 -7 -48 -10 -115 -31 -33 -10 -63 -18 -67 -17 -5 1 -8 -2 -8 -6 0
-4 -10 -8 -22 -9 -11 -1 -24 -6 -27 -10 -3 -4 -15 -10 -26 -11 -11 -2 -23 -8
-26 -14 -3 -5 -12 -10 -20 -11 -8 -2 -36 -15 -61 -30 -26 -15 -49 -27 -53 -27
-3 0 -18 -11 -33 -25 -15 -14 -32 -25 -39 -25 -7 0 -13 -4 -13 -10 0 -5 -5
-10 -11 -10 -7 0 -22 -11 -35 -26 -13 -14 -24 -22 -24 -18 0 4 -13 -7 -28 -24
-16 -18 -31 -29 -34 -26 -4 3 -9 -4 -13 -15 -3 -12 -13 -21 -21 -21 -8 0 -14
-4 -14 -10 0 -5 -17 -27 -37 -49 -49 -51 -106 -127 -127 -168 -9 -18 -21 -33
-26 -33 -6 0 -9 -3 -8 -7 1 -5 -11 -33 -27 -63 -16 -30 -30 -61 -31 -68 -1 -7
-10 -24 -19 -38 -9 -13 -13 -29 -10 -34 3 -6 1 -10 -5 -10 -6 0 -9 -4 -5 -9 3
-5 1 -12 -4 -15 -7 -5 -23 -63 -23 -86 0 -3 -5 -14 -10 -24 -6 -11 -12 -38
-14 -60 -3 -22 -10 -44 -17 -48 -9 -6 -8 -8 3 -8 9 0 11 -3 5 -8 -16 -12 -27
-294 -13 -324 6 -12 5 -18 -4 -18 -8 0 -9 -3 -3 -8 6 -4 11 -23 12 -42 1 -19
6 -48 11 -65 5 -16 8 -38 6 -47 -1 -10 2 -18 8 -18 6 0 8 -6 5 -13 -3 -7 1
-24 8 -37 7 -13 11 -30 8 -37 -3 -7 0 -13 7 -13 6 0 9 -4 6 -9 -3 -5 1 -22 9
-37 8 -16 15 -33 15 -38 0 -14 53 -120 63 -127 5 -3 8 -9 8 -13 -3 -23 0 -36
9 -31 9 5 12 -1 9 -21 0 -4 3 -10 8 -13 4 -3 28 -35 53 -71 24 -36 54 -76 65
-89 37 -45 151 -156 196 -191 24 -19 46 -38 47 -42 2 -4 8 -8 13 -8 6 0 37
-18 70 -40 32 -23 59 -37 59 -33 0 4 4 3 8 -4 4 -6 14 -13 22 -15 8 -2 21 -9
28 -15 7 -7 22 -13 33 -13 10 0 19 -4 19 -10 0 -5 6 -10 14 -10 7 0 31 -8 52
-17 22 -9 48 -18 59 -20 11 -2 27 -6 35 -10 8 -3 20 -7 25 -9 32 -8 74 -17
100 -21 17 -2 37 -7 45 -10 8 -4 40 -7 70 -8 30 0 61 -4 68 -9 7 -4 12 -2 12
5 0 8 4 8 13 2 13 -11 96 -11 114 0 6 4 14 1 16 -5 4 -9 8 -10 14 -3 4 6 19
10 33 10 14 -1 35 2 47 7 13 4 25 3 29 -3 4 -7 9 -8 13 -1 3 5 23 13 44 16 21
3 47 10 56 16 10 5 20 7 23 5 5 -5 139 38 160 52 7 4 15 8 18 8 21 3 80 31 80
39 0 5 3 6 6 3 4 -4 19 2 34 13 16 11 33 20 39 20 6 0 11 5 11 10 0 6 6 10 13
10 7 0 22 7 32 15 116 87 184 143 179 148 -3 3 4 8 15 12 12 3 21 14 21 22 0
9 3 14 6 10 8 -8 34 18 34 33 0 6 5 8 10 5 6 -3 10 -2 10 4 0 5 6 16 13 23 26
27 82 103 82 110 0 5 5 12 11 16 6 4 21 27 35 52 13 25 26 47 29 50 6 6 82
177 84 190 1 3 5 11 9 17 5 7 6 13 2 13 -3 0 -1 9 5 21 7 11 13 30 16 42 2 12
6 33 10 47 11 47 16 75 17 103 1 15 5 27 8 27 4 0 5 14 3 31 -2 16 0 28 4 25
9 -5 8 96 -1 110 -3 6 -3 14 0 18 10 9 15 48 6 43 -5 -3 -8 26 -7 64 0 38 -2
69 -5 69 -5 0 -10 36 -14 98 0 12 -4 22 -7 22 -3 0 -7 8 -8 18 -2 18 -9 53
-12 62 -1 3 -2 8 -1 13 0 4 -3 7 -8 7 -5 0 -8 6 -8 13 1 25 -16 77 -25 77 -6
0 -7 7 -4 15 3 9 0 18 -8 21 -7 3 -13 11 -13 18 0 22 -25 76 -34 76 -5 0 -9 7
-9 16 0 8 -13 35 -30 59 -17 24 -30 46 -30 50 0 7 -19 30 -42 53 -10 9 -18 20
-18 24 0 15 -128 152 -195 208 -85 71 -217 156 -237 152 -5 -1 -8 2 -8 7 0 10
-39 27 -52 23 -5 -1 -8 2 -8 7 0 8 -32 24 -52 26 -3 0 -10 3 -14 8 -4 4 -18 7
-31 7 -12 0 -23 5 -23 10 0 6 -11 10 -25 10 -14 0 -25 4 -25 9 0 5 -9 7 -20 4
-11 -3 -20 -1 -20 4 0 5 -8 10 -17 11 -10 1 -32 3 -48 5 -17 2 -35 6 -40 9 -6
3 -18 4 -27 3 -10 -2 -18 2 -18 8 0 5 -3 7 -6 4 -4 -3 -15 -2 -25 3 -12 7 -20
7 -24 0 -3 -5 -11 -10 -16 -10 -6 0 -8 3 -6 8 5 7 -221 11 -229 3z"/>
</g>
</svg>
